<?xml version="1.0" encoding="UTF-8" standalone="no"?>
<!-- Created with Inkscape (http://www.inkscape.org/) -->

<svg
   xmlns:dc="http://purl.org/dc/elements/1.1/"
   xmlns:cc="http://creativecommons.org/ns#"
   xmlns:rdf="http://www.w3.org/1999/02/22-rdf-syntax-ns#"
   xmlns:svg="http://www.w3.org/2000/svg"
   xmlns="http://www.w3.org/2000/svg"
   xmlns:sodipodi="http://sodipodi.sourceforge.net/DTD/sodipodi-0.dtd"
   xmlns:inkscape="http://www.inkscape.org/namespaces/inkscape"
   width="1600"
   height="1600"
   viewBox="0 0 1600 1600"
   id="svg4159"
   version="1.1"
   inkscape:version="0.91 r13725"
   sodipodi:docname="annoyed.svg">
  <defs
     id="defs4161" />
  <sodipodi:namedview
     id="base"
     pagecolor="#ffffff"
     bordercolor="#666666"
     borderopacity="1.0"
     inkscape:pageopacity="0.0"
     inkscape:pageshadow="2"
     inkscape:zoom="0.45119199"
     inkscape:cx="1109.7526"
     inkscape:cy="911.04547"
     inkscape:document-units="px"
     inkscape:current-layer="g4738"
     showgrid="false"
     units="px"
     showguides="true"
     inkscape:guide-bbox="true"
     inkscape:snap-bbox="true"
     inkscape:snap-center="true"
     inkscape:window-width="1366"
     inkscape:window-height="744"
     inkscape:window-x="0"
     inkscape:window-y="24"
     inkscape:window-maximized="1">
    <sodipodi:guide
       position="0,0"
       orientation="0,1600"
       id="guide4707" />
    <sodipodi:guide
       position="1600,0"
       orientation="-1600,0"
       id="guide4709" />
    <sodipodi:guide
       position="1600,1600"
       orientation="0,-1600"
       id="guide4711" />
    <sodipodi:guide
       position="0,1600"
       orientation="1600,0"
       id="guide4713" />
    <sodipodi:guide
       position="470.7438,800"
       orientation="0,1"
       id="guide4715"
       inkscape:label=""
       inkscape:color="rgb(0,0,255)" />
    <sodipodi:guide
       position="800,859.50413"
       orientation="1,0"
       id="guide4717"
       inkscape:label=""
       inkscape:color="rgb(0,0,255)" />
  </sodipodi:namedview>
  <metadata
     id="metadata4164">
    <rdf:RDF>
      <cc:Work
         rdf:about="">
        <dc:format>image/svg+xml</dc:format>
        <dc:type
           rdf:resource="http://purl.org/dc/dcmitype/StillImage" />
        <dc:title></dc:title>
      </cc:Work>
    </rdf:RDF>
  </metadata>
  <g
     inkscape:label="Layer 1"
     inkscape:groupmode="layer"
     id="layer1"
     transform="translate(0,547.63773)">
    <g
       id="g4738"
       inkscape:transform-center-x="-247.06408">
      <path
         style="opacity:1;fill:#ffffff;fill-opacity:0.99459456;stroke:#000000;stroke-width:2;stroke-miterlimit:4;stroke-dasharray:none;stroke-opacity:1"
         d="M 1145.4961,637.0957 A 276.10219,331.43223 60 0 1 1043.2695,722.22656 276.10219,331.43223 60 0 1 863.99805,773.82617 166.61157,200.00002 60 0 0 873.85938,900 166.61157,200.00002 60 0 0 1130.3691,944.28906 166.61157,200.00002 60 0 0 1220.2695,700 166.61157,200.00002 60 0 0 1145.4961,637.0957 Z"
         id="path4723"
         inkscape:connector-curvature="0"
         inkscape:transform-center-x="-247.1027"
         inkscape:transform-center-y="6.3248076"
         transform="translate(0,-547.63773)" />
      <path
         style="opacity:1;fill:#000000;fill-opacity:0.99459456;stroke:#000000;stroke-width:2;stroke-miterlimit:4;stroke-dasharray:none;stroke-opacity:1"
         d="m 1090.8507,296.14886 a 61.923562,51.585904 45 0 0 -7.3099,-80.26328 61.923562,51.585904 45 0 0 -80.2633,-7.3099 61.923562,51.585904 45 0 0 7.3099,80.26338 61.923562,51.585904 45 0 0 80.2633,7.3098 z"
         id="path4736"
         inkscape:connector-curvature="0"
         inkscape:transform-center-x="-247.06408"
         inkscape:transform-center-y="2.4999983e-05" />
      <path
         inkscape:transform-center-y="6.3248076"
         inkscape:transform-center-x="247.1027"
         inkscape:connector-curvature="0"
         id="path4784"
         d="m 454.5039,89.45797 a 331.43223,276.10219 30 0 0 102.2266,85.13086 331.43223,276.10219 30 0 0 179.27145,51.59961 200.00002,166.61157 30 0 1 -9.86133,126.17383 200.00002,166.61157 30 0 1 -256.50972,44.28906 200.00002,166.61157 30 0 1 -89.9004,-244.28906 200.00002,166.61157 30 0 1 74.7734,-62.9043 z"
         style="opacity:1;fill:#ffffff;fill-opacity:0.99459456;stroke:#000000;stroke-width:2;stroke-miterlimit:4;stroke-dasharray:none;stroke-opacity:1" />
      <path
         inkscape:transform-center-y="2.4999983e-05"
         inkscape:transform-center-x="247.06408"
         inkscape:connector-curvature="0"
         id="path4786"
         d="m 509.14929,296.14886 a 51.585904,61.923562 45 0 1 7.3099,-80.26328 51.585904,61.923562 45 0 1 80.2633,-7.3099 51.585904,61.923562 45 0 1 -7.3099,80.26338 51.585904,61.923562 45 0 1 -80.2633,7.3098 z"
         style="opacity:1;fill:#000000;fill-opacity:0.99459456;stroke:#000000;stroke-width:2;stroke-miterlimit:4;stroke-dasharray:none;stroke-opacity:1" />
    </g>
  </g>
</svg>
