<?xml version="1.0" encoding="UTF-8" standalone="no"?>
<!-- Created with Inkscape (http://www.inkscape.org/) -->

<svg
   xmlns:dc="http://purl.org/dc/elements/1.1/"
   xmlns:cc="http://creativecommons.org/ns#"
   xmlns:rdf="http://www.w3.org/1999/02/22-rdf-syntax-ns#"
   xmlns:svg="http://www.w3.org/2000/svg"
   xmlns="http://www.w3.org/2000/svg"
   xmlns:sodipodi="http://sodipodi.sourceforge.net/DTD/sodipodi-0.dtd"
   xmlns:inkscape="http://www.inkscape.org/namespaces/inkscape"
   width="1600"
   height="1600"
   viewBox="0 0 1600 1600"
   id="svg4159"
   version="1.1"
   inkscape:version="0.91 r13725"
   sodipodi:docname="template.svg">
  <defs
     id="defs4161" />
  <sodipodi:namedview
     id="base"
     pagecolor="#ffffff"
     bordercolor="#666666"
     borderopacity="1.0"
     inkscape:pageopacity="0.0"
     inkscape:pageshadow="2"
     inkscape:zoom="0.45119199"
     inkscape:cx="530.40371"
     inkscape:cy="783.50864"
     inkscape:document-units="px"
     inkscape:current-layer="layer1"
     showgrid="false"
     units="px"
     showguides="true"
     inkscape:guide-bbox="true"
     inkscape:snap-bbox="true"
     inkscape:snap-center="true"
     inkscape:window-width="1366"
     inkscape:window-height="744"
     inkscape:window-x="0"
     inkscape:window-y="24"
     inkscape:window-maximized="1">
    <sodipodi:guide
       position="0,0"
       orientation="0,1600"
       id="guide4707" />
    <sodipodi:guide
       position="1600,0"
       orientation="-1600,0"
       id="guide4709" />
    <sodipodi:guide
       position="1600,1600"
       orientation="0,-1600"
       id="guide4711" />
    <sodipodi:guide
       position="0,1600"
       orientation="1600,0"
       id="guide4713" />
    <sodipodi:guide
       position="470.7438,800"
       orientation="0,1"
       id="guide4715"
       inkscape:label=""
       inkscape:color="rgb(0,0,255)" />
    <sodipodi:guide
       position="800,859.50413"
       orientation="1,0"
       id="guide4717"
       inkscape:label=""
       inkscape:color="rgb(0,0,255)" />
  </sodipodi:namedview>
  <metadata
     id="metadata4164">
    <rdf:RDF>
      <cc:Work
         rdf:about="">
        <dc:format>image/svg+xml</dc:format>
        <dc:type
           rdf:resource="http://purl.org/dc/dcmitype/StillImage" />
        <dc:title></dc:title>
      </cc:Work>
    </rdf:RDF>
  </metadata>
  <g
     inkscape:label="Layer 1"
     inkscape:groupmode="layer"
     id="layer1"
     transform="translate(0,547.63773)">
    <g
       id="g4738"
       inkscape:transform-center-x="-247.06408">
      <path
         inkscape:connector-curvature="0"
         id="path4723"
         d="M 1220.2692,152.36226 A 166.61157,200.00002 60 0 0 963.7584,108.07235 166.61157,200.00002 60 0 0 873.85896,352.3623 166.61157,200.00002 60 0 0 1130.37,396.65205 166.61157,200.00002 60 0 0 1220.2692,152.36226 Z"
         style="opacity:1;fill:none;fill-opacity:0.99459456;stroke:#000000;stroke-width:2;stroke-miterlimit:4;stroke-dasharray:none;stroke-opacity:1" />
      <path
         style="opacity:1;fill:none;fill-opacity:0.99459456;stroke:#000000;stroke-width:2;stroke-miterlimit:4;stroke-dasharray:none;stroke-opacity:1"
         d="m 1090.8507,296.14886 a 61.923562,51.585904 45 0 0 -7.3099,-80.26328 61.923562,51.585904 45 0 0 -80.2633,-7.3099 61.923562,51.585904 45 0 0 7.3099,80.26338 61.923562,51.585904 45 0 0 80.2633,7.3098 z"
         id="path4736"
         inkscape:connector-curvature="0" />
    </g>
    <g
       inkscape:transform-center-x="247.06407"
       id="g4742"
       transform="matrix(-1,0,0,1,1600,0)">
      <path
         style="opacity:1;fill:none;fill-opacity:0.99459456;stroke:#000000;stroke-width:2;stroke-miterlimit:4;stroke-dasharray:none;stroke-opacity:1"
         d="M 1220.2692,152.36226 A 166.61157,200.00002 60 0 0 963.7584,108.07235 166.61157,200.00002 60 0 0 873.85896,352.3623 166.61157,200.00002 60 0 0 1130.37,396.65205 166.61157,200.00002 60 0 0 1220.2692,152.36226 Z"
         id="path4744"
         inkscape:connector-curvature="0" />
      <path
         inkscape:connector-curvature="0"
         id="path4746"
         d="m 1090.8507,296.14886 a 61.923562,51.585904 45 0 0 -7.3099,-80.26328 61.923562,51.585904 45 0 0 -80.2633,-7.3099 61.923562,51.585904 45 0 0 7.3099,80.26338 61.923562,51.585904 45 0 0 80.2633,7.3098 z"
         style="opacity:1;fill:none;fill-opacity:0.99459456;stroke:#000000;stroke-width:2;stroke-miterlimit:4;stroke-dasharray:none;stroke-opacity:1" />
    </g>
  </g>
</svg>
