<?xml version="1.0" encoding="UTF-8" standalone="no"?>
<!-- Created with Inkscape (http://www.inkscape.org/) -->

<svg
   xmlns:dc="http://purl.org/dc/elements/1.1/"
   xmlns:cc="http://creativecommons.org/ns#"
   xmlns:rdf="http://www.w3.org/1999/02/22-rdf-syntax-ns#"
   xmlns:svg="http://www.w3.org/2000/svg"
   xmlns="http://www.w3.org/2000/svg"
   xmlns:sodipodi="http://sodipodi.sourceforge.net/DTD/sodipodi-0.dtd"
   xmlns:inkscape="http://www.inkscape.org/namespaces/inkscape"
   width="1600"
   height="1600"
   viewBox="0 0 1600 1600"
   id="svg4159"
   version="1.1"
   inkscape:version="0.91 r13725"
   sodipodi:docname="worried.svg">
  <defs
     id="defs4161" />
  <sodipodi:namedview
     id="base"
     pagecolor="#ffffff"
     bordercolor="#666666"
     borderopacity="1.0"
     inkscape:pageopacity="0.0"
     inkscape:pageshadow="2"
     inkscape:zoom="0.378125"
     inkscape:cx="800"
     inkscape:cy="800"
     inkscape:document-units="px"
     inkscape:current-layer="layer1"
     showgrid="false"
     units="px"
     showguides="true"
     inkscape:guide-bbox="true"
     inkscape:snap-bbox="true"
     inkscape:snap-center="true"
     inkscape:window-width="1366"
     inkscape:window-height="744"
     inkscape:window-x="0"
     inkscape:window-y="24"
     inkscape:window-maximized="1">
    <sodipodi:guide
       position="0,0"
       orientation="0,1600"
       id="guide4707" />
    <sodipodi:guide
       position="1600,0"
       orientation="-1600,0"
       id="guide4709" />
    <sodipodi:guide
       position="1600,1600"
       orientation="0,-1600"
       id="guide4711" />
    <sodipodi:guide
       position="0,1600"
       orientation="1600,0"
       id="guide4713" />
    <sodipodi:guide
       position="470.7438,800"
       orientation="0,1"
       id="guide4715"
       inkscape:label=""
       inkscape:color="rgb(0,0,255)" />
    <sodipodi:guide
       position="800,859.50413"
       orientation="1,0"
       id="guide4717"
       inkscape:label=""
       inkscape:color="rgb(0,0,255)" />
  </sodipodi:namedview>
  <metadata
     id="metadata4164">
    <rdf:RDF>
      <cc:Work
         rdf:about="">
        <dc:format>image/svg+xml</dc:format>
        <dc:type
           rdf:resource="http://purl.org/dc/dcmitype/StillImage" />
        <dc:title></dc:title>
      </cc:Work>
    </rdf:RDF>
  </metadata>
  <g
     inkscape:label="Layer 1"
     inkscape:groupmode="layer"
     id="layer1"
     transform="translate(0,547.63773)">
    <path
       inkscape:connector-curvature="0"
       style="opacity:1;fill:#ffffff;fill-opacity:0.99459456;stroke:#000000;stroke-width:2;stroke-miterlimit:4;stroke-dasharray:none;stroke-opacity:1"
       d="m 642.15234,111.82125 a 277.45448,333.05552 75 0 1 -225.74218,171.39258 277.45448,333.05552 75 0 1 -41.45704,8.5 200.00002,166.61157 30 0 0 94.67774,104.9375 200.00002,166.61157 30 0 0 256.50976,-44.28906 200.00002,166.61157 30 0 0 -83.98828,-240.54102 z"
       id="path4744" />
    <path
       style="opacity:1;fill:#000000;fill-opacity:0.99459456;stroke:#000000;stroke-width:2;stroke-miterlimit:4;stroke-dasharray:none;stroke-opacity:1"
       d="m 615.1493,344.14886 a 51.585904,61.923562 45 0 1 7.3099,-80.26328 51.585904,61.923562 45 0 1 80.2633,-7.3099 51.585904,61.923562 45 0 1 -7.3099,80.26338 51.585904,61.923562 45 0 1 -80.2633,7.3098 z"
       id="path4746"
       inkscape:connector-curvature="0" />
    <path
       id="path5387"
       d="m 957.84766,111.82125 a 333.05552,277.45448 15 0 0 225.74214,171.39258 333.05552,277.45448 15 0 0 41.4571,8.5 166.61157,200.00002 60 0 1 -94.6778,104.9375 166.61157,200.00002 60 0 1 -256.50972,-44.28906 166.61157,200.00002 60 0 1 83.98828,-240.54102 z"
       style="opacity:1;fill:#ffffff;fill-opacity:0.99459456;stroke:#000000;stroke-width:2;stroke-miterlimit:4;stroke-dasharray:none;stroke-opacity:1"
       inkscape:connector-curvature="0" />
    <path
       inkscape:connector-curvature="0"
       id="path5403"
       d="m 984.85071,344.14886 a 61.923562,51.585904 45 0 0 -7.3099,-80.26328 61.923562,51.585904 45 0 0 -80.2633,-7.3099 61.923562,51.585904 45 0 0 7.3099,80.26338 61.923562,51.585904 45 0 0 80.2633,7.3098 z"
       style="opacity:1;fill:#000000;fill-opacity:0.99459456;stroke:#000000;stroke-width:2;stroke-miterlimit:4;stroke-dasharray:none;stroke-opacity:1"
       inkscape:transform-center-x="-141.06408"
       inkscape:transform-center-y="48.000025" />
  </g>
</svg>
